<svg t="1605023559149" class="icon" viewBox="0 0 1024 1024" version="1.1" xmlns="http://www.w3.org/2000/svg" p-id="3879" width="100%" height="100%"><path d="M512 64q190.016 4.992 316.512 131.488T960 512q-4.992 190.016-131.488 316.512T512 960q-190.016-4.992-316.512-131.488T64 512q4.992-190.016 131.488-316.512T512 64z m0 394.016l-104-104q-12-12-27.488-12t-27.008 11.488-11.488 27.008 12 27.488l104 104-104 104q-12 12-12 27.488t11.488 27.008 27.008 11.488 27.488-12l104-104 104 104q16 15.008 36.992 9.504t26.496-26.496-9.504-36.992L565.984 512l104-104q12-12 12-27.488t-11.488-27.008-27.008-11.488-27.488 12z" p-id="3880" fill="#d81e06"></path></svg>